# File created by Blade
# Date/Time:  Mon Sep 22 15:50:36 2014
# Frame Rate: 120.000 fps
#------------------------------------------------------
:FULLY-SPECIFIED
:DEGREES
2753
root 2.156444 37.014455 3.834128 2.214861 -4.865800 1.883851
RightUpLeg 6.699631 -5.473548 -3.934826
RightLeg -4.926394 -0.000000 0.000000
RightFoot -12.974719 -14.321382 15.889917
RightToeBase 14.723246 -0.000000 -0.000000
LeftUpLeg 6.656603 2.555213 0.922361
LeftLeg -3.833047 -0.000000 0.000000
LeftFoot -10.542822 14.590712 -18.492693
LeftToeBase 9.344624 -0.000000 -0.000000
Spine -3.398279 -0.802987 0.389954
RightShoulder 3.582687 -25.714286 -10.572485
RightArm 23.318422 -29.058446 63.020094
RightForeArm 13.161989 -0.000000 34.004332
RightHand 3.077800 -0.000000 -0.633316
RightHandThumb1 -24.326973 -0.000000 -32.862282
LeftShoulder -26.024563 28.144985 11.033688
LeftArm 91.642290 -70.503528 -123.157806
LeftForeArm -37.257762 -0.000000 95.926877
LeftHand -10.110370 -0.000000 13.394933
LeftHandThumb1 -26.253704 0.000000 33.147579
Head 15.977265 20.944630 6.484820
2754
root 2.155487 37.012274 3.848175 2.230856 -4.876384 1.895479
RightUpLeg 6.722082 -5.329521 -3.931081
RightLeg -4.961879 -0.000000 0.000000
RightFoot -13.010837 -14.484927 15.872008
RightToeBase 14.698200 -0.000000 -0.000000
LeftUpLeg 6.657284 2.585477 0.909824
LeftLeg -3.830372 -0.000000 0.000000
LeftFoot -10.592508 14.559953 -18.659264
LeftToeBase 9.345501 -0.000000 -0.000000
Spine -3.433080 -0.582990 0.347911
RightShoulder 3.504845 -25.766465 -10.559839
RightArm 23.247368 -29.062858 63.057445
RightForeArm 13.158300 -0.000000 34.018563
RightHand 3.124374 -0.000000 -0.668196
RightHandThumb1 -24.326973 -0.000000 -32.862282
LeftShoulder -26.275093 28.446743 10.856414
LeftArm 92.363185 -70.592004 -124.045897
LeftForeArm -37.281597 0.000000 96.099401
LeftHand -10.091188 -0.000000 13.367076
LeftHandThumb1 -26.253704 0.000000 33.147579
Head 15.960573 20.802466 6.482087
2755
root 2.155379 37.010587 3.863630 2.227519 -4.892316 1.906531
RightUpLeg 6.758939 -5.247083 -3.943860
RightLeg -4.988653 -0.000000 0.000000
RightFoot -13.036974 -14.521607 15.888557
RightToeBase 14.681561 -0.000000 -0.000000
LeftUpLeg 6.678647 2.600936 0.894173
LeftLeg -3.813855 -0.000000 0.000000
LeftFoot -10.635528 14.598139 -18.577501
LeftToeBase 9.439033 -0.000000 -0.000000
Spine -3.448797 -0.384051 0.314111
RightShoulder 3.500548 -25.807285 -10.567239
RightArm 23.133599 -29.053599 63.100819
RightForeArm 13.154393 -0.000000 34.060254
RightHand 3.140891 -0.000000 -0.705348
RightHandThumb1 -24.326973 -0.000000 -32.862282
LeftShoulder -26.536152 28.523202 10.767437
LeftArm 92.337306 -70.825365 -124.188421
LeftForeArm -37.236352 -0.000000 96.257857
LeftHand -10.070173 -0.000000 13.279289
LeftHandThumb1 -26.253704 0.000000 33.147579
Head 15.952664 20.679813 6.467191
2756
root 2.155583 37.007993 3.882766 2.214355 -4.918599 1.911044
RightUpLeg 6.813318 -5.161926 -3.954700
RightLeg -5.017933 -0.000000 0.000000
RightFoot -13.063369 -14.556866 15.909884
RightToeBase 14.681116 -0.000000 -0.000000
LeftUpLeg 6.714062 2.649918 0.888404
LeftLeg -3.793871 -0.000000 0.000000
LeftFoot -10.659210 14.556914 -18.648782
LeftToeBase 9.330529 -0.000000 -0.000000
Spine -3.461357 -0.162405 0.284914
RightShoulder 3.492596 -25.873976 -10.581959
RightArm 23.009503 -29.002629 63.173263
RightForeArm 13.086277 -0.000000 34.112320
RightHand 3.131899 -0.000000 -0.734694
RightHandThumb1 -24.326973 -0.000000 -32.862282
LeftShoulder -26.784732 28.627378 10.678621
LeftArm 92.446470 -71.062984 -124.474070
LeftForeArm -37.190251 0.000000 96.423977
LeftHand -9.913619 -0.000000 13.207232
LeftHandThumb1 -26.253704 0.000000 33.147579
Head 15.929897 20.502966 6.442875
2757
root 2.156437 37.005841 3.901829 2.195777 -4.943940 1.915610
RightUpLeg 6.883119 -5.040197 -3.966399
RightLeg -5.065255 -0.000000 0.000000
RightFoot -13.084288 -14.608598 15.942295
RightToeBase 14.676879 -0.000000 -0.000000
LeftUpLeg 6.758410 2.690170 0.875604
LeftLeg -3.774226 -0.000000 0.000000
LeftFoot -10.665568 14.590078 -18.474699
LeftToeBase 9.320863 -0.000000 -0.000000
Spine -3.453787 0.074015 0.259771
RightShoulder 3.441750 -25.952303 -10.575572
RightArm 22.954544 -28.983687 63.178564
RightForeArm 13.054071 0.000000 34.122873
RightHand 3.089071 -0.000000 -0.609117
RightHandThumb1 -24.326973 -0.000000 -32.862282
LeftShoulder -27.050893 28.724377 10.565452
LeftArm 92.477758 -71.337429 -124.650687
LeftForeArm -37.169533 -0.000000 96.629639
LeftHand -9.997010 -0.000000 13.220311
LeftHandThumb1 -26.253704 0.000000 33.147579
Head 15.915922 20.364475 6.442050
2758
root 2.155715 37.003751 3.920171 2.192207 -4.962758 1.908406
RightUpLeg 6.935296 -4.923766 -3.968129
RightLeg -5.102427 -0.000000 0.000000
RightFoot -13.106427 -14.625417 16.016539
RightToeBase 14.684572 -0.000000 -0.000000
LeftUpLeg 6.782160 2.737632 0.880531
LeftLeg -3.756204 -0.000000 0.000000
LeftFoot -10.748104 14.592236 -18.529153
LeftToeBase 9.458585 -0.000000 -0.000000
Spine -3.469697 0.315307 0.243223
RightShoulder 3.433739 -26.027141 -10.599547
RightArm 22.840155 -28.917459 63.266168
RightForeArm 13.049595 -0.000000 34.134082
RightHand 3.076161 -0.000000 -0.570884
RightHandThumb1 -24.326973 -0.000000 -32.862282
LeftShoulder -27.338816 28.821760 10.459731
LeftArm 92.446459 -71.575118 -124.761880
LeftForeArm -37.095810 0.000000 96.811788
LeftHand -9.880625 -0.000000 13.202477
LeftHandThumb1 -26.253704 0.000000 33.147579
Head 15.910721 20.192473 6.453623
2759
root 2.155323 37.001623 3.935838 2.198185 -4.986698 1.899669
RightUpLeg 6.965160 -4.835861 -3.962406
RightLeg -5.129855 -0.000000 0.000000
RightFoot -13.130346 -14.648036 16.062353
RightToeBase 14.684755 -0.000000 -0.000000
LeftUpLeg 6.784804 2.767654 0.882103
LeftLeg -3.715043 -0.000000 0.000000
LeftFoot -10.816161 14.601331 -18.538396
LeftToeBase 9.481595 -0.000000 -0.000000
Spine -3.487407 0.577223 0.221987
RightShoulder 3.378438 -26.106289 -10.594725
RightArm 22.779296 -28.886713 63.295072
RightForeArm 13.173646 -0.000000 34.123306
RightHand 3.108401 0.000000 -0.686244
RightHandThumb1 -24.326973 -0.000000 -32.862282
LeftShoulder -27.582562 28.900621 10.381685
LeftArm 92.427758 -71.908884 -124.892859
LeftForeArm -37.027845 -0.000000 97.035715
LeftHand -10.063506 -0.000000 13.215383
LeftHandThumb1 -26.253704 0.000000 33.147579
Head 15.895249 20.005850 6.479880
2760
root 2.156582 36.999590 3.949513 2.227740 -5.012471 1.886939
RightUpLeg 6.960153 -4.762955 -3.951699
RightLeg -5.141348 -0.000000 0.000000
RightFoot -13.137012 -14.676927 16.061413
RightToeBase 14.669440 -0.000000 -0.000000
LeftUpLeg 6.754863 2.802810 0.883246
LeftLeg -3.662907 -0.000000 0.000000
LeftFoot -10.878875 14.615872 -18.518370
LeftToeBase 9.470832 -0.000000 -0.000000
Spine -3.529319 0.828402 0.208074
RightShoulder 3.367415 -26.155613 -10.603890
RightArm 22.631197 -28.818023 63.385398
RightForeArm 13.104620 -0.000000 34.144436
RightHand 3.030656 -0.000000 -0.520793
RightHandThumb1 -24.326973 -0.000000 -32.862282
LeftShoulder -27.890939 29.028249 10.281849
LeftArm 92.491268 -72.146041 -125.127036
LeftForeArm -36.933597 -0.000000 97.236800
LeftHand -9.975709 -0.000000 13.249995
LeftHandThumb1 -26.253704 0.000000 33.147579
Head 15.876044 19.808846 6.513079
2761
root 2.158050 36.998459 3.962820 2.254619 -5.053236 1.872294
RightUpLeg 6.957558 -4.664238 -3.941215
RightLeg -5.157506 -0.000000 0.000000
RightFoot -13.140317 -14.701099 16.090219
RightToeBase 14.619688 -0.000000 -0.000000
LeftUpLeg 6.737706 2.850648 0.881742
LeftLeg -3.627085 -0.000000 0.000000
LeftFoot -10.885249 14.647626 -18.418818
LeftToeBase 9.306602 -0.000000 -0.000000
Spine -3.561891 1.096453 0.196677
RightShoulder 3.351705 -26.234157 -10.616540
RightArm 22.548155 -28.751715 63.435870
RightForeArm 13.053282 -0.000000 34.130175
RightHand 2.987799 -0.000000 -0.404170
RightHandThumb1 -24.326973 -0.000000 -32.862282
LeftShoulder -28.236567 29.142850 10.153999
LeftArm 92.396823 -72.419450 -125.172715
LeftForeArm -36.867411 -0.000000 97.465215
LeftHand -10.022173 -0.000000 13.293743
LeftHandThumb1 -26.253704 0.000000 33.147579
Head 15.852273 19.592668 6.536625
